<svg xmlns="http://www.w3.org/2000/svg" xmlns:xlink="http://www.w3.org/1999/xlink" width="1080" zoomAndPan="magnify" viewBox="0 0 810 135.000003" height="180" preserveAspectRatio="xMidYMid meet" version="1.0"><defs><g/></defs><g fill="#1bbd3a" fill-opacity="1"><g transform="translate(18.763347, 99.512972)"><g><path d="M 51.296875 -20.4375 C 51.296875 -16.269531 50.234375 -12.566406 48.109375 -9.328125 C 45.992188 -6.085938 42.941406 -3.566406 38.953125 -1.765625 C 34.960938 0.0234375 30.28125 0.921875 24.90625 0.921875 C 20.425781 0.921875 16.664062 0.609375 13.625 -0.015625 C 10.59375 -0.648438 7.429688 -1.75 4.140625 -3.3125 L 4.140625 -19.515625 C 7.609375 -17.742188 11.210938 -16.359375 14.953125 -15.359375 C 18.703125 -14.359375 22.144531 -13.859375 25.28125 -13.859375 C 27.976562 -13.859375 29.957031 -14.328125 31.21875 -15.265625 C 32.476562 -16.203125 33.109375 -17.40625 33.109375 -18.875 C 33.109375 -19.800781 32.851562 -20.609375 32.34375 -21.296875 C 31.832031 -21.984375 31.015625 -22.679688 29.890625 -23.390625 C 28.773438 -24.097656 25.796875 -25.539062 20.953125 -27.71875 C 16.554688 -29.71875 13.257812 -31.648438 11.0625 -33.515625 C 8.875 -35.390625 7.25 -37.539062 6.1875 -39.96875 C 5.132812 -42.394531 4.609375 -45.265625 4.609375 -48.578125 C 4.609375 -54.773438 6.863281 -59.609375 11.375 -63.078125 C 15.882812 -66.546875 22.082031 -68.28125 29.96875 -68.28125 C 36.9375 -68.28125 44.046875 -66.671875 51.296875 -63.453125 L 45.71875 -49.40625 C 39.425781 -52.289062 33.992188 -53.734375 29.421875 -53.734375 C 27.054688 -53.734375 25.335938 -53.316406 24.265625 -52.484375 C 23.191406 -51.660156 22.65625 -50.632812 22.65625 -49.40625 C 22.65625 -48.082031 23.335938 -46.898438 24.703125 -45.859375 C 26.066406 -44.816406 29.773438 -42.914062 35.828125 -40.15625 C 41.628906 -37.539062 45.65625 -34.734375 47.90625 -31.734375 C 50.164062 -28.742188 51.296875 -24.976562 51.296875 -20.4375 Z M 51.296875 -20.4375 "/></g></g></g><g fill="#1bbd3a" fill-opacity="1"><g transform="translate(73.184816, 99.512972)"><g><path d="M 40.234375 0 L 36.78125 -6.90625 L 36.421875 -6.90625 C 33.992188 -3.894531 31.519531 -1.835938 29 -0.734375 C 26.488281 0.367188 23.238281 0.921875 19.25 0.921875 C 14.332031 0.921875 10.460938 -0.550781 7.640625 -3.5 C 4.816406 -6.445312 3.40625 -10.59375 3.40625 -15.9375 C 3.40625 -21.488281 5.335938 -25.625 9.203125 -28.34375 C 13.078125 -31.0625 18.679688 -32.585938 26.015625 -32.921875 L 34.71875 -33.203125 L 34.71875 -33.9375 C 34.71875 -38.226562 32.597656 -40.375 28.359375 -40.375 C 24.554688 -40.375 19.722656 -39.085938 13.859375 -36.515625 L 8.65625 -48.390625 C 14.726562 -51.523438 22.398438 -53.09375 31.671875 -53.09375 C 38.367188 -53.09375 43.550781 -51.429688 47.21875 -48.109375 C 50.882812 -44.796875 52.71875 -40.160156 52.71875 -34.203125 L 52.71875 0 Z M 26.890625 -11.78125 C 29.066406 -11.78125 30.929688 -12.472656 32.484375 -13.859375 C 34.035156 -15.242188 34.8125 -17.039062 34.8125 -19.25 L 34.8125 -23.296875 L 30.671875 -23.109375 C 24.742188 -22.898438 21.78125 -20.722656 21.78125 -16.578125 C 21.78125 -13.378906 23.484375 -11.78125 26.890625 -11.78125 Z M 26.890625 -11.78125 "/></g></g></g><g fill="#1bbd3a" fill-opacity="1"><g transform="translate(131.93422, 99.512972)"><g><path d="M 70.265625 0 L 70.265625 -28.359375 C 70.265625 -31.890625 69.78125 -34.535156 68.8125 -36.296875 C 67.84375 -38.066406 66.316406 -38.953125 64.234375 -38.953125 C 61.472656 -38.953125 59.445312 -37.769531 58.15625 -35.40625 C 56.863281 -33.039062 56.21875 -29.34375 56.21875 -24.3125 L 56.21875 0 L 38.171875 0 L 38.171875 -28.359375 C 38.171875 -31.890625 37.707031 -34.535156 36.78125 -36.296875 C 35.863281 -38.066406 34.378906 -38.953125 32.328125 -38.953125 C 29.503906 -38.953125 27.445312 -37.691406 26.15625 -35.171875 C 24.863281 -32.660156 24.21875 -28.550781 24.21875 -22.84375 L 24.21875 0 L 6.21875 0 L 6.21875 -52.171875 L 19.796875 -52.171875 L 22.0625 -45.71875 L 23.109375 -45.71875 C 24.492188 -48.113281 26.5 -49.941406 29.125 -51.203125 C 31.75 -52.460938 34.734375 -53.09375 38.078125 -53.09375 C 45.597656 -53.09375 50.878906 -50.804688 53.921875 -46.234375 L 55.34375 -46.234375 C 56.8125 -48.378906 58.859375 -50.054688 61.484375 -51.265625 C 64.109375 -52.484375 67.003906 -53.09375 70.171875 -53.09375 C 76.335938 -53.09375 80.894531 -51.507812 83.84375 -48.34375 C 86.789062 -45.1875 88.265625 -40.382812 88.265625 -33.9375 L 88.265625 0 Z M 70.265625 0 "/></g></g></g><g fill="#1bbd3a" fill-opacity="1"><g transform="translate(226.227934, 99.512972)"><g><path d="M 37.53125 0.921875 C 34.882812 0.921875 32.515625 0.484375 30.421875 -0.390625 C 28.335938 -1.265625 26.269531 -2.835938 24.21875 -5.109375 L 23.390625 -5.109375 C 23.941406 -1.453125 24.21875 0.816406 24.21875 1.703125 L 24.21875 22.65625 L 6.21875 22.65625 L 6.21875 -52.171875 L 20.859375 -52.171875 L 23.390625 -45.53125 L 24.21875 -45.53125 C 27.5625 -50.570312 32.179688 -53.09375 38.078125 -53.09375 C 43.847656 -53.09375 48.375 -50.695312 51.65625 -45.90625 C 54.945312 -41.113281 56.59375 -34.546875 56.59375 -26.203125 C 56.59375 -17.785156 54.878906 -11.160156 51.453125 -6.328125 C 48.023438 -1.492188 43.382812 0.921875 37.53125 0.921875 Z M 31.5 -38.953125 C 28.851562 -38.953125 27 -38.007812 25.9375 -36.125 C 24.882812 -34.238281 24.3125 -31.4375 24.21875 -27.71875 L 24.21875 -26.296875 C 24.21875 -21.804688 24.816406 -18.5625 26.015625 -16.5625 C 27.210938 -14.570312 29.097656 -13.578125 31.671875 -13.578125 C 33.972656 -13.578125 35.644531 -14.566406 36.6875 -16.546875 C 37.738281 -18.523438 38.265625 -21.804688 38.265625 -26.390625 C 38.265625 -30.867188 37.738281 -34.082031 36.6875 -36.03125 C 35.644531 -37.976562 33.914062 -38.953125 31.5 -38.953125 Z M 31.5 -38.953125 "/></g></g></g><g fill="#1bbd3a" fill-opacity="1"><g transform="translate(286.865065, 99.512972)"><g><path d="M 40.234375 0 L 36.78125 -6.90625 L 36.421875 -6.90625 C 33.992188 -3.894531 31.519531 -1.835938 29 -0.734375 C 26.488281 0.367188 23.238281 0.921875 19.25 0.921875 C 14.332031 0.921875 10.460938 -0.550781 7.640625 -3.5 C 4.816406 -6.445312 3.40625 -10.59375 3.40625 -15.9375 C 3.40625 -21.488281 5.335938 -25.625 9.203125 -28.34375 C 13.078125 -31.0625 18.679688 -32.585938 26.015625 -32.921875 L 34.71875 -33.203125 L 34.71875 -33.9375 C 34.71875 -38.226562 32.597656 -40.375 28.359375 -40.375 C 24.554688 -40.375 19.722656 -39.085938 13.859375 -36.515625 L 8.65625 -48.390625 C 14.726562 -51.523438 22.398438 -53.09375 31.671875 -53.09375 C 38.367188 -53.09375 43.550781 -51.429688 47.21875 -48.109375 C 50.882812 -44.796875 52.71875 -40.160156 52.71875 -34.203125 L 52.71875 0 Z M 26.890625 -11.78125 C 29.066406 -11.78125 30.929688 -12.472656 32.484375 -13.859375 C 34.035156 -15.242188 34.8125 -17.039062 34.8125 -19.25 L 34.8125 -23.296875 L 30.671875 -23.109375 C 24.742188 -22.898438 21.78125 -20.722656 21.78125 -16.578125 C 21.78125 -13.378906 23.484375 -11.78125 26.890625 -11.78125 Z M 26.890625 -11.78125 "/></g></g></g><g fill="#1bbd3a" fill-opacity="1"><g transform="translate(345.614469, 99.512972)"><g><path d="M 39.046875 0 L 39.046875 -28.453125 C 39.046875 -35.453125 36.972656 -38.953125 32.828125 -38.953125 C 29.878906 -38.953125 27.707031 -37.71875 26.3125 -35.25 C 24.914062 -32.78125 24.21875 -28.671875 24.21875 -22.921875 L 24.21875 0 L 6.21875 0 L 6.21875 -71.640625 L 24.21875 -71.640625 L 24.21875 -61.46875 C 24.21875 -56.863281 23.972656 -51.613281 23.484375 -45.71875 L 24.3125 -45.71875 C 26.03125 -48.414062 28.070312 -50.316406 30.4375 -51.421875 C 32.800781 -52.535156 35.546875 -53.09375 38.671875 -53.09375 C 44.503906 -53.09375 49.039062 -51.410156 52.28125 -48.046875 C 55.519531 -44.679688 57.140625 -39.976562 57.140625 -33.9375 L 57.140625 0 Z M 39.046875 0 "/></g></g></g><g fill="#000000" fill-opacity="1"><g transform="translate(408.780576, 99.512972)"><g/></g></g><g fill="#fac43c" fill-opacity="1"><g transform="translate(433.267159, 99.512972)"><g><path d="M 36.609375 0 L 22.84375 -48.484375 L 22.421875 -48.484375 C 23.066406 -40.222656 23.390625 -33.804688 23.390625 -29.234375 L 23.390625 0 L 7.28125 0 L 7.28125 -67.3125 L 31.5 -67.3125 L 45.53125 -19.515625 L 45.90625 -19.515625 L 59.671875 -67.3125 L 83.9375 -67.3125 L 83.9375 0 L 67.21875 0 L 67.21875 -29.515625 C 67.21875 -31.046875 67.238281 -32.75 67.28125 -34.625 C 67.332031 -36.5 67.539062 -41.085938 67.90625 -48.390625 L 67.5 -48.390625 L 53.921875 0 Z M 36.609375 0 "/></g></g></g><g fill="#fac43c" fill-opacity="1"><g transform="translate(524.430027, 99.512972)"><g><path d="M 40.234375 0 L 36.78125 -6.90625 L 36.421875 -6.90625 C 33.992188 -3.894531 31.519531 -1.835938 29 -0.734375 C 26.488281 0.367188 23.238281 0.921875 19.25 0.921875 C 14.332031 0.921875 10.460938 -0.550781 7.640625 -3.5 C 4.816406 -6.445312 3.40625 -10.59375 3.40625 -15.9375 C 3.40625 -21.488281 5.335938 -25.625 9.203125 -28.34375 C 13.078125 -31.0625 18.679688 -32.585938 26.015625 -32.921875 L 34.71875 -33.203125 L 34.71875 -33.9375 C 34.71875 -38.226562 32.597656 -40.375 28.359375 -40.375 C 24.554688 -40.375 19.722656 -39.085938 13.859375 -36.515625 L 8.65625 -48.390625 C 14.726562 -51.523438 22.398438 -53.09375 31.671875 -53.09375 C 38.367188 -53.09375 43.550781 -51.429688 47.21875 -48.109375 C 50.882812 -44.796875 52.71875 -40.160156 52.71875 -34.203125 L 52.71875 0 Z M 26.890625 -11.78125 C 29.066406 -11.78125 30.929688 -12.472656 32.484375 -13.859375 C 34.035156 -15.242188 34.8125 -17.039062 34.8125 -19.25 L 34.8125 -23.296875 L 30.671875 -23.109375 C 24.742188 -22.898438 21.78125 -20.722656 21.78125 -16.578125 C 21.78125 -13.378906 23.484375 -11.78125 26.890625 -11.78125 Z M 26.890625 -11.78125 "/></g></g></g><g fill="#fac43c" fill-opacity="1"><g transform="translate(583.179431, 99.512972)"><g><path d="M 37.703125 -53.09375 C 39.273438 -53.09375 40.765625 -52.96875 42.171875 -52.71875 L 43.1875 -52.53125 L 41.578125 -35.546875 C 40.097656 -35.910156 38.054688 -36.09375 35.453125 -36.09375 C 31.523438 -36.09375 28.671875 -35.195312 26.890625 -33.40625 C 25.109375 -31.613281 24.21875 -29.023438 24.21875 -25.640625 L 24.21875 0 L 6.21875 0 L 6.21875 -52.171875 L 19.609375 -52.171875 L 22.421875 -43.828125 L 23.296875 -43.828125 C 24.796875 -46.597656 26.890625 -48.832031 29.578125 -50.53125 C 32.265625 -52.238281 34.972656 -53.09375 37.703125 -53.09375 Z M 37.703125 -53.09375 "/></g></g></g><g fill="#fac43c" fill-opacity="1"><g transform="translate(627.425639, 99.512972)"><g><path d="M 23.671875 -29.328125 C 25.847656 -32.796875 27.703125 -35.5 29.234375 -37.4375 L 40.9375 -52.171875 L 61 -52.171875 L 42.90625 -29.96875 L 62.15625 0 L 41.578125 0 L 30.15625 -18.6875 L 24.3125 -14.234375 L 24.3125 0 L 6.21875 0 L 6.21875 -71.640625 L 24.3125 -71.640625 L 24.3125 -43.46875 C 24.3125 -38.644531 23.972656 -33.929688 23.296875 -29.328125 Z M 23.671875 -29.328125 "/></g></g></g><g fill="#fac43c" fill-opacity="1"><g transform="translate(689.58214, 99.512972)"><g><path d="M 31.40625 0.921875 C 22.71875 0.921875 15.96875 -1.382812 11.15625 -6 C 6.351562 -10.625 3.953125 -17.203125 3.953125 -25.734375 C 3.953125 -34.546875 6.175781 -41.304688 10.625 -46.015625 C 15.082031 -50.734375 21.441406 -53.09375 29.703125 -53.09375 C 37.554688 -53.09375 43.625 -51.039062 47.90625 -46.9375 C 52.1875 -42.84375 54.328125 -36.941406 54.328125 -29.234375 L 54.328125 -21.21875 L 22.140625 -21.21875 C 22.265625 -18.3125 23.332031 -16.023438 25.34375 -14.359375 C 27.351562 -12.703125 30.09375 -11.875 33.5625 -11.875 C 36.726562 -11.875 39.640625 -12.171875 42.296875 -12.765625 C 44.953125 -13.367188 47.828125 -14.394531 50.921875 -15.84375 L 50.921875 -2.90625 C 48.097656 -1.457031 45.179688 -0.457031 42.171875 0.09375 C 39.160156 0.644531 35.570312 0.921875 31.40625 0.921875 Z M 30.34375 -40.84375 C 28.226562 -40.84375 26.457031 -40.171875 25.03125 -38.828125 C 23.601562 -37.492188 22.765625 -35.398438 22.515625 -32.546875 L 37.984375 -32.546875 C 37.921875 -35.066406 37.207031 -37.078125 35.84375 -38.578125 C 34.476562 -40.085938 32.644531 -40.84375 30.34375 -40.84375 Z M 30.34375 -40.84375 "/></g></g></g><g fill="#fac43c" fill-opacity="1"><g transform="translate(747.871125, 99.512972)"><g><path d="M 31.765625 -13.3125 C 34.191406 -13.3125 37.09375 -13.910156 40.46875 -15.109375 L 40.46875 -1.984375 C 38.039062 -0.941406 35.726562 -0.195312 33.53125 0.25 C 31.34375 0.695312 28.773438 0.921875 25.828125 0.921875 C 19.785156 0.921875 15.425781 -0.554688 12.75 -3.515625 C 10.082031 -6.484375 8.75 -11.035156 8.75 -17.171875 L 8.75 -38.671875 L 2.4375 -38.671875 L 2.4375 -46 L 10.453125 -51.65625 L 15.109375 -62.625 L 26.890625 -62.625 L 26.890625 -52.171875 L 39.6875 -52.171875 L 39.6875 -38.671875 L 26.890625 -38.671875 L 26.890625 -18.375 C 26.890625 -15 28.515625 -13.3125 31.765625 -13.3125 Z M 31.765625 -13.3125 "/></g></g></g></svg>